<mxfile host="app.diagrams.net" modified="2021-05-14T09:34:36.162Z" agent="5.0 (Windows NT 6.1; Win64; x64) AppleWebKit/537.36 (KHTML, like Gecko) Chrome/90.0.4430.93 Safari/537.36" etag="GBpttFMO7OOnx7J9Uau7" version="14.6.13" type="github">
  <diagram id="pcZ6vUCnvT8zMVaeiaFT" name="Page-1">
    <mxGraphModel dx="1808" dy="530" grid="1" gridSize="10" guides="1" tooltips="1" connect="1" arrows="1" fold="1" page="1" pageScale="1" pageWidth="827" pageHeight="1169" math="0" shadow="0">
      <root>
        <mxCell id="0" />
        <mxCell id="1" parent="0" />
        <mxCell id="zICcTGXriuqykznMnsUU-1" value="&lt;font face=&quot;Comic Sans MS&quot; style=&quot;font-size: 18px&quot;&gt;Subject.login(token)&lt;/font&gt;" style="text;html=1;strokeColor=none;fillColor=none;align=center;verticalAlign=middle;whiteSpace=wrap;rounded=0;" vertex="1" parent="1">
          <mxGeometry y="220" width="40" height="20" as="geometry" />
        </mxCell>
        <mxCell id="zICcTGXriuqykznMnsUU-3" style="edgeStyle=orthogonalEdgeStyle;rounded=0;orthogonalLoop=1;jettySize=auto;html=1;entryX=1;entryY=0.25;entryDx=0;entryDy=0;" edge="1" parent="1" target="zICcTGXriuqykznMnsUU-1">
          <mxGeometry relative="1" as="geometry">
            <mxPoint x="40" y="90" as="sourcePoint" />
            <Array as="points">
              <mxPoint x="40" y="160" />
              <mxPoint x="40" y="160" />
            </Array>
          </mxGeometry>
        </mxCell>
        <mxCell id="zICcTGXriuqykznMnsUU-2" value="&lt;font face=&quot;Comic Sans MS&quot; style=&quot;font-size: 18px&quot;&gt;UsernamePasswordToken token&lt;/font&gt;" style="text;html=1;strokeColor=none;fillColor=none;align=center;verticalAlign=middle;whiteSpace=wrap;rounded=0;" vertex="1" parent="1">
          <mxGeometry x="20" y="50" width="40" height="20" as="geometry" />
        </mxCell>
        <mxCell id="zICcTGXriuqykznMnsUU-5" value="&lt;font face=&quot;Comic Sans MS&quot; style=&quot;font-size: 18px&quot;&gt;AuthenticationToken&lt;br&gt;token&lt;/font&gt;" style="text;html=1;strokeColor=none;fillColor=none;align=center;verticalAlign=middle;whiteSpace=wrap;rounded=0;" vertex="1" parent="1">
          <mxGeometry x="410" y="370" width="40" height="20" as="geometry" />
        </mxCell>
        <mxCell id="zICcTGXriuqykznMnsUU-7" value="&lt;font face=&quot;Comic Sans MS&quot; style=&quot;font-size: 18px&quot;&gt;DelegatingSubject.login(token)&lt;/font&gt;" style="text;html=1;strokeColor=none;fillColor=none;align=center;verticalAlign=middle;whiteSpace=wrap;rounded=0;" vertex="1" parent="1">
          <mxGeometry x="310" y="220" width="40" height="20" as="geometry" />
        </mxCell>
        <mxCell id="zICcTGXriuqykznMnsUU-9" value="" style="endArrow=classic;html=1;" edge="1" parent="1">
          <mxGeometry width="50" height="50" relative="1" as="geometry">
            <mxPoint x="110" y="230" as="sourcePoint" />
            <mxPoint x="190" y="230" as="targetPoint" />
          </mxGeometry>
        </mxCell>
        <mxCell id="zICcTGXriuqykznMnsUU-10" value="" style="endArrow=classic;html=1;" edge="1" parent="1">
          <mxGeometry width="50" height="50" relative="1" as="geometry">
            <mxPoint x="430" y="360" as="sourcePoint" />
            <mxPoint x="430" y="250" as="targetPoint" />
          </mxGeometry>
        </mxCell>
        <mxCell id="zICcTGXriuqykznMnsUU-11" value="" style="endArrow=classic;html=1;" edge="1" parent="1">
          <mxGeometry width="50" height="50" relative="1" as="geometry">
            <mxPoint x="470" y="229.66" as="sourcePoint" />
            <mxPoint x="550" y="229.66" as="targetPoint" />
          </mxGeometry>
        </mxCell>
        <mxCell id="zICcTGXriuqykznMnsUU-12" value="&lt;font face=&quot;Comic Sans MS&quot; style=&quot;font-size: 18px&quot;&gt;SecurityManager.login(token)&lt;/font&gt;" style="text;html=1;strokeColor=none;fillColor=none;align=center;verticalAlign=middle;whiteSpace=wrap;rounded=0;" vertex="1" parent="1">
          <mxGeometry x="670" y="220" width="40" height="20" as="geometry" />
        </mxCell>
        <mxCell id="zICcTGXriuqykznMnsUU-13" value="" style="endArrow=classic;html=1;" edge="1" parent="1">
          <mxGeometry width="50" height="50" relative="1" as="geometry">
            <mxPoint x="430" y="360" as="sourcePoint" />
            <mxPoint x="780" y="250" as="targetPoint" />
          </mxGeometry>
        </mxCell>
        <mxCell id="zICcTGXriuqykznMnsUU-14" value="" style="endArrow=classic;html=1;" edge="1" parent="1">
          <mxGeometry width="50" height="50" relative="1" as="geometry">
            <mxPoint x="827" y="229.65999999999985" as="sourcePoint" />
            <mxPoint x="907" y="229.65999999999985" as="targetPoint" />
          </mxGeometry>
        </mxCell>
        <mxCell id="zICcTGXriuqykznMnsUU-15" value="&lt;font face=&quot;Comic Sans MS&quot; style=&quot;font-size: 18px&quot;&gt;DefaultSecurityManager.login(token)&lt;/font&gt;" style="text;html=1;strokeColor=none;fillColor=none;align=center;verticalAlign=middle;whiteSpace=wrap;rounded=0;" vertex="1" parent="1">
          <mxGeometry x="1060" y="220" width="40" height="20" as="geometry" />
        </mxCell>
        <mxCell id="zICcTGXriuqykznMnsUU-16" value="&lt;font face=&quot;Comic Sans MS&quot; style=&quot;font-size: 18px&quot;&gt;SessionsSecurityManager&lt;/font&gt;" style="text;html=1;strokeColor=none;fillColor=none;align=center;verticalAlign=middle;whiteSpace=wrap;rounded=0;" vertex="1" parent="1">
          <mxGeometry x="1060" y="330" width="40" height="20" as="geometry" />
        </mxCell>
        <mxCell id="zICcTGXriuqykznMnsUU-17" value="" style="endArrow=classic;html=1;" edge="1" parent="1">
          <mxGeometry width="50" height="50" relative="1" as="geometry">
            <mxPoint x="1241" y="229.65999999999985" as="sourcePoint" />
            <mxPoint x="1321" y="229.65999999999985" as="targetPoint" />
          </mxGeometry>
        </mxCell>
        <mxCell id="zICcTGXriuqykznMnsUU-18" value="&lt;font face=&quot;Comic Sans MS&quot; style=&quot;font-size: 18px&quot;&gt;this.authenticate(token)&lt;/font&gt;" style="text;html=1;strokeColor=none;fillColor=none;align=center;verticalAlign=middle;whiteSpace=wrap;rounded=0;" vertex="1" parent="1">
          <mxGeometry x="1410" y="220" width="40" height="20" as="geometry" />
        </mxCell>
        <mxCell id="zICcTGXriuqykznMnsUU-20" value="&lt;font face=&quot;Comic Sans MS&quot; style=&quot;font-size: 18px&quot;&gt;AuthenticatingSecurityManager.authenticate(token)&lt;/font&gt;" style="text;html=1;strokeColor=none;fillColor=none;align=center;verticalAlign=middle;whiteSpace=wrap;rounded=0;" vertex="1" parent="1">
          <mxGeometry x="1820" y="220" width="40" height="20" as="geometry" />
        </mxCell>
        <mxCell id="zICcTGXriuqykznMnsUU-21" value="" style="endArrow=classic;html=1;" edge="1" parent="1">
          <mxGeometry width="50" height="50" relative="1" as="geometry">
            <mxPoint x="1540" y="229.65999999999985" as="sourcePoint" />
            <mxPoint x="1620" y="229.65999999999985" as="targetPoint" />
          </mxGeometry>
        </mxCell>
        <mxCell id="zICcTGXriuqykznMnsUU-22" value="&lt;font face=&quot;Comic Sans MS&quot; style=&quot;font-size: 18px&quot;&gt;RealmSecurityManager&lt;/font&gt;" style="text;html=1;strokeColor=none;fillColor=none;align=center;verticalAlign=middle;whiteSpace=wrap;rounded=0;" vertex="1" parent="1">
          <mxGeometry x="1790" y="350" width="40" height="20" as="geometry" />
        </mxCell>
        <mxCell id="zICcTGXriuqykznMnsUU-23" value="&lt;font face=&quot;Comic Sans MS&quot; style=&quot;font-size: 18px&quot;&gt;this.authenticator.authenticate(token)&lt;/font&gt;" style="text;html=1;strokeColor=none;fillColor=none;align=center;verticalAlign=middle;whiteSpace=wrap;rounded=0;" vertex="1" parent="1">
          <mxGeometry x="2300" y="220" width="40" height="20" as="geometry" />
        </mxCell>
        <mxCell id="zICcTGXriuqykznMnsUU-24" value="" style="endArrow=classic;html=1;" edge="1" parent="1">
          <mxGeometry width="50" height="50" relative="1" as="geometry">
            <mxPoint x="2066.9999999999995" y="229.65999999999985" as="sourcePoint" />
            <mxPoint x="2146.9999999999995" y="229.65999999999985" as="targetPoint" />
          </mxGeometry>
        </mxCell>
        <mxCell id="zICcTGXriuqykznMnsUU-25" value="&lt;font face=&quot;Comic Sans MS&quot; style=&quot;font-size: 18px&quot;&gt;Authenticator&lt;/font&gt;" style="text;html=1;strokeColor=none;fillColor=none;align=center;verticalAlign=middle;whiteSpace=wrap;rounded=0;" vertex="1" parent="1">
          <mxGeometry x="2230" y="350" width="40" height="20" as="geometry" />
        </mxCell>
        <mxCell id="zICcTGXriuqykznMnsUU-26" value="" style="endArrow=classic;html=1;" edge="1" parent="1">
          <mxGeometry width="50" height="50" relative="1" as="geometry">
            <mxPoint x="2489.9999999999995" y="229.65999999999985" as="sourcePoint" />
            <mxPoint x="2569.9999999999995" y="229.65999999999985" as="targetPoint" />
          </mxGeometry>
        </mxCell>
        <mxCell id="zICcTGXriuqykznMnsUU-27" value="&lt;font face=&quot;Comic Sans MS&quot; style=&quot;font-size: 18px&quot;&gt;AbstractAuthenticator.authenticate(token)&lt;/font&gt;" style="text;html=1;strokeColor=none;fillColor=none;align=center;verticalAlign=middle;whiteSpace=wrap;rounded=0;" vertex="1" parent="1">
          <mxGeometry x="2740" y="220" width="40" height="20" as="geometry" />
        </mxCell>
        <mxCell id="zICcTGXriuqykznMnsUU-28" value="" style="endArrow=classic;html=1;" edge="1" parent="1">
          <mxGeometry width="50" height="50" relative="1" as="geometry">
            <mxPoint x="2950" y="229.65999999999985" as="sourcePoint" />
            <mxPoint x="3030" y="229.65999999999985" as="targetPoint" />
          </mxGeometry>
        </mxCell>
        <mxCell id="zICcTGXriuqykznMnsUU-29" value="&lt;font face=&quot;Comic Sans MS&quot; style=&quot;font-size: 18px&quot;&gt;this.doAuthenticate(token)&lt;/font&gt;" style="text;html=1;strokeColor=none;fillColor=none;align=center;verticalAlign=middle;whiteSpace=wrap;rounded=0;" vertex="1" parent="1">
          <mxGeometry x="3140" y="220" width="40" height="20" as="geometry" />
        </mxCell>
        <mxCell id="zICcTGXriuqykznMnsUU-30" value="" style="endArrow=classic;html=1;" edge="1" parent="1">
          <mxGeometry width="50" height="50" relative="1" as="geometry">
            <mxPoint x="3280" y="229.65999999999985" as="sourcePoint" />
            <mxPoint x="3360" y="229.65999999999985" as="targetPoint" />
          </mxGeometry>
        </mxCell>
        <mxCell id="zICcTGXriuqykznMnsUU-31" value="&lt;font face=&quot;Comic Sans MS&quot; style=&quot;font-size: 18px&quot;&gt;MudularRealmdoAuthenticate.doAuthenticate(token)&lt;/font&gt;" style="text;html=1;strokeColor=none;fillColor=none;align=center;verticalAlign=middle;whiteSpace=wrap;rounded=0;" vertex="1" parent="1">
          <mxGeometry x="3570" y="220" width="40" height="20" as="geometry" />
        </mxCell>
        <mxCell id="zICcTGXriuqykznMnsUU-32" value="" style="endArrow=classic;html=1;" edge="1" parent="1">
          <mxGeometry width="50" height="50" relative="1" as="geometry">
            <mxPoint x="3820" y="229.65999999999985" as="sourcePoint" />
            <mxPoint x="3900" y="229.65999999999985" as="targetPoint" />
          </mxGeometry>
        </mxCell>
        <mxCell id="zICcTGXriuqykznMnsUU-33" value="&lt;font face=&quot;Comic Sans MS&quot; style=&quot;font-size: 18px&quot;&gt;this.doSingleRealmAuthentication(realm,token)&lt;/font&gt;" style="text;html=1;strokeColor=none;fillColor=none;align=center;verticalAlign=middle;whiteSpace=wrap;rounded=0;" vertex="1" parent="1">
          <mxGeometry x="4080" y="220" width="40" height="20" as="geometry" />
        </mxCell>
        <mxCell id="zICcTGXriuqykznMnsUU-34" value="" style="endArrow=classic;html=1;" edge="1" parent="1">
          <mxGeometry width="50" height="50" relative="1" as="geometry">
            <mxPoint x="4300" y="229.65999999999985" as="sourcePoint" />
            <mxPoint x="4380" y="229.65999999999985" as="targetPoint" />
          </mxGeometry>
        </mxCell>
        <mxCell id="zICcTGXriuqykznMnsUU-35" value="&lt;font face=&quot;Comic Sans MS&quot; style=&quot;font-size: 18px&quot;&gt;Realm.getAuthenticationInfo(token)&lt;/font&gt;" style="text;html=1;strokeColor=none;fillColor=none;align=center;verticalAlign=middle;whiteSpace=wrap;rounded=0;" vertex="1" parent="1">
          <mxGeometry x="4520" y="220" width="40" height="20" as="geometry" />
        </mxCell>
        <mxCell id="zICcTGXriuqykznMnsUU-37" value="&lt;font face=&quot;Comic Sans MS&quot;&gt;&lt;span style=&quot;font-size: 18px&quot;&gt;Realm&lt;br&gt;realm&lt;br&gt;&lt;/span&gt;&lt;/font&gt;" style="text;html=1;strokeColor=none;fillColor=none;align=center;verticalAlign=middle;whiteSpace=wrap;rounded=0;" vertex="1" parent="1">
          <mxGeometry x="4190" y="70" width="40" height="20" as="geometry" />
        </mxCell>
        <mxCell id="zICcTGXriuqykznMnsUU-39" value="" style="endArrow=classic;html=1;" edge="1" parent="1">
          <mxGeometry width="50" height="50" relative="1" as="geometry">
            <mxPoint x="4210" y="110" as="sourcePoint" />
            <mxPoint x="4210" y="220" as="targetPoint" />
          </mxGeometry>
        </mxCell>
        <mxCell id="zICcTGXriuqykznMnsUU-40" value="" style="endArrow=classic;html=1;" edge="1" parent="1">
          <mxGeometry width="50" height="50" relative="1" as="geometry">
            <mxPoint x="4700" y="229.65999999999985" as="sourcePoint" />
            <mxPoint x="4780" y="229.65999999999985" as="targetPoint" />
          </mxGeometry>
        </mxCell>
        <mxCell id="zICcTGXriuqykznMnsUU-41" value="&lt;font face=&quot;Comic Sans MS&quot; style=&quot;font-size: 18px&quot;&gt;AuthenticatingRealm.doGetAuthenticationInfo(token)&lt;/font&gt;" style="text;html=1;strokeColor=none;fillColor=none;align=center;verticalAlign=middle;whiteSpace=wrap;rounded=0;" vertex="1" parent="1">
          <mxGeometry x="4990" y="220" width="40" height="20" as="geometry" />
        </mxCell>
      </root>
    </mxGraphModel>
  </diagram>
</mxfile>
